<?xml version="1.0" encoding="UTF-8" standalone="no"?>
<!-- Created with Inkscape (http://www.inkscape.org/) -->

<svg
   xmlns:dc="http://purl.org/dc/elements/1.1/"
   xmlns:cc="http://creativecommons.org/ns#"
   xmlns:rdf="http://www.w3.org/1999/02/22-rdf-syntax-ns#"
   xmlns:svg="http://www.w3.org/2000/svg"
   xmlns="http://www.w3.org/2000/svg"
   xmlns:sodipodi="http://sodipodi.sourceforge.net/DTD/sodipodi-0.dtd"
   xmlns:inkscape="http://www.inkscape.org/namespaces/inkscape"
   width="180"
   height="80"
   id="svg2"
   version="1.1"
   inkscape:version="0.48.0 r9654"
   sodipodi:docname="signhere.svg">
  <defs
     id="defs4" />
  <sodipodi:namedview
     id="base"
     pagecolor="#ffffff"
     bordercolor="#666666"
     borderopacity="1.0"
     inkscape:pageopacity="0.0"
     inkscape:pageshadow="2"
     inkscape:zoom="1"
     inkscape:cx="134.72188"
     inkscape:cy="14.025007"
     inkscape:document-units="px"
     inkscape:current-layer="layer1"
     showgrid="false"
     fit-margin-top="0"
     fit-margin-left="0"
     fit-margin-right="0"
     fit-margin-bottom="0"
     borderlayer="true"
     inkscape:window-width="1680"
     inkscape:window-height="975"
     inkscape:window-x="-9"
     inkscape:window-y="221"
     inkscape:window-maximized="1" />
  <metadata
     id="metadata7">
    <rdf:RDF>
      <cc:Work
         rdf:about="">
        <dc:format>image/svg+xml</dc:format>
        <dc:type
           rdf:resource="http://purl.org/dc/dcmitype/StillImage" />
        <dc:title></dc:title>
      </cc:Work>
    </rdf:RDF>
  </metadata>
  <g
     inkscape:groupmode="layer"
     id="layer2"
     inkscape:label="back"
     sodipodi:insensitive="true"
     transform="translate(0,-100)"
     style="display:none">
    <rect
       style="fill:#42db3a;fill-opacity:1;stroke:#ffffff;stroke-width:4.32837009;stroke-miterlimit:4;stroke-opacity:1;stroke-dasharray:none;stroke-dashoffset:0"
       id="rect3785"
       width="206.51053"
       height="218.63234"
       x="-16.255875"
       y="-15.052865"
       ry="24.809345" />
  </g>
  <g
     inkscape:label="Layer 1"
     inkscape:groupmode="layer"
     id="layer1"
     transform="translate(-86.373116,-496.07017)">
    <path
       style="fill:none;stroke:#ffffff;stroke-width:5.78999519;stroke-miterlimit:4;stroke-opacity:1;stroke-dasharray:none"
       d="m 103.82665,505.64731 127.98607,25.91875 27.17592,27.56183 -35.2238,12.17839 -127.986071,-25.91875 c -3.431077,-0.69484 -5.633899,-4.01643 -4.939066,-7.4475 l 5.539454,-27.35367 c 0.694833,-3.43106 4.016413,-5.63389 7.447493,-4.93905 z"
       id="rect2985-5"
       inkscape:connector-curvature="0"
       sodipodi:nodetypes="scccssss" />
    <path
       style="fill:#fff212;fill-opacity:1;stroke:#000000;stroke-width:1.92999839999999990;stroke-miterlimit:4;stroke-opacity:1;stroke-dasharray:none"
       d="m 103.82665,505.64731 127.98606,25.91874 27.17592,27.56184 -35.2238,12.17839 -127.986061,-25.91875 c -3.431077,-0.69484 -5.633899,-4.01643 -4.939066,-7.4475 l 5.539454,-27.35367 c 0.694833,-3.43106 4.016413,-5.63389 7.447493,-4.93905 z"
       id="rect2985"
       inkscape:connector-curvature="0"
       sodipodi:nodetypes="scccssss" />
    <g
       style="font-size:22px;font-style:normal;font-variant:normal;font-weight:normal;font-stretch:normal;text-align:start;line-height:125%;letter-spacing:0px;word-spacing:0px;writing-mode:lr-tb;text-anchor:start;fill:#000000;fill-opacity:1;stroke:none;font-family:Comic Sans MS;-inkscape-font-specification:Comic Sans MS"
       id="text3756"
       transform="matrix(0.94579989,0.19153608,-0.19153608,0.94579989,98.923765,62.631495)">
      <path
         d="m 101.45306,475.0303 c -0.007,-0.30077 0.0949,-0.54605 0.30615,-0.73584 0.21126,-0.18977 0.47086,-0.28466 0.77881,-0.28466 0.35091,0 0.65885,0.20052 0.92383,0.60156 0.36523,0.54427 0.69107,0.91309 0.97753,1.10644 0.60872,0.40105 1.49316,0.60157 2.65332,0.60157 1.11002,0 2.14127,-0.23991 3.09375,-0.71973 1.21744,-0.61588 1.82616,-1.47168 1.82618,-2.56738 -2e-5,-0.90234 -0.51206,-1.61491 -1.53614,-2.1377 -0.86654,-0.45116 -1.93718,-0.69465 -3.21191,-0.73047 -1.13152,-0.043 -2.09473,-0.29003 -2.88965,-0.74121 -1.01693,-0.58007 -1.52539,-1.4108 -1.52539,-2.49219 0,-1.27472 0.7233,-2.43846 2.16992,-3.49121 1.38216,-0.99542 2.81087,-1.49314 4.28614,-1.49316 0.69465,2e-5 1.47883,0.11818 2.35253,0.35449 1.16015,0.30796 1.74023,0.70184 1.74024,1.18164 -1e-5,0.63022 -0.32228,0.94533 -0.9668,0.94531 -0.28647,2e-5 -0.78777,-0.077 -1.5039,-0.23095 -0.71616,-0.15396 -1.27117,-0.22736 -1.66504,-0.22022 -1.1172,0.0143 -2.06609,0.29006 -2.84668,0.82715 -0.80209,0.55145 -1.20313,1.22104 -1.20313,2.00879 0,0.59441 0.52994,1.01336 1.58985,1.25684 0.39387,0.0931 1.15656,0.17904 2.28808,0.25781 1.63996,0.12175 2.92186,0.63738 3.8457,1.54687 0.84504,0.83074 1.26757,1.84409 1.26758,3.04004 -1e-5,1.70443 -0.78777,3.06511 -2.36328,4.08203 -1.36785,0.88086 -2.95411,1.32129 -4.75879,1.32129 -1.31055,0 -2.51009,-0.25065 -3.59863,-0.75195 -1.33203,-0.61588 -2.00879,-1.46094 -2.03027,-2.53516 z"
         id="path3807"
         inkscape:connector-curvature="0" />
      <path
         d="m 125.54778,464.32034 c -0.45834,2e-5 -1.03484,-0.0465 -1.72949,-0.13965 l -1.72949,-0.22558 c -0.16472,2.08399 -0.24708,4.07488 -0.24707,5.97265 -1e-5,0.50131 0.0143,1.12078 0.043,1.8584 0.0286,0.73764 0.043,1.3571 0.043,1.8584 -1e-5,0.67318 -0.0251,1.28549 -0.0752,1.83692 l 3.38379,-0.043 c 0.30077,0 0.55321,0.10563 0.75732,0.31689 0.20409,0.21127 0.30614,0.47087 0.30616,0.77881 -2e-5,0.31511 -0.10207,0.57829 -0.30616,0.78955 -0.20411,0.21126 -0.45655,0.3169 -0.75732,0.3169 -0.40105,0 -1.00261,0.009 -1.80469,0.0268 -0.80209,0.0179 -1.40365,0.0269 -1.80469,0.0269 -0.47266,0 -1.17985,0.0662 -2.12158,0.19873 -0.94173,0.13248 -1.65251,0.19873 -2.13232,0.19873 -0.30078,0 -0.55323,-0.10563 -0.75733,-0.3169 -0.2041,-0.21126 -0.30615,-0.47086 -0.30615,-0.77881 0,-0.30794 0.10205,-0.56933 0.30615,-0.78418 0.2041,-0.21484 0.45655,-0.32226 0.75733,-0.32226 0.46549,0 1.23535,-0.0752 2.30957,-0.22559 0.0716,-0.58007 0.10742,-1.24251 0.10742,-1.9873 0,-0.49414 -0.0233,-1.09749 -0.0698,-1.81006 -0.0466,-0.71256 -0.0698,-1.31233 -0.0698,-1.79932 0,-1.65428 0.10026,-3.72036 0.30078,-6.19824 l -1.39648,0.043 -1.39649,0.0322 c -0.30794,1e-5 -0.56575,-0.10383 -0.77343,-0.31153 -0.20769,-0.20766 -0.31153,-0.47264 -0.31153,-0.79492 0,-0.666 0.33659,-1.03123 1.00977,-1.0957 0.58007,-0.0573 1.66503,-0.0859 3.25488,-0.0859 1.42513,2e-5 3.21191,0.15399 5.36035,0.46191 0.63736,0.0931 0.95605,0.47626 0.95606,1.14942 -1e-5,0.3366 -0.12176,0.60516 -0.36524,0.80566 -0.21485,0.16473 -0.46192,0.24709 -0.74121,0.24707 z"
         id="path3809"
         inkscape:connector-curvature="0" />
      <path
         d="m 141.2636,471.20609 c -0.44402,2.19857 -1.3768,3.95491 -2.79834,5.26904 -1.42156,1.31413 -3.09913,1.97119 -5.03271,1.97119 -1.76172,0 -3.08301,-0.49235 -3.96387,-1.47705 -0.88086,-0.9847 -1.32129,-2.46175 -1.32129,-4.43115 0,-1.85481 0.43864,-3.76513 1.31592,-5.73096 0.87728,-1.96581 2.00341,-3.55386 3.37842,-4.76416 0.91666,-0.80923 1.88704,-1.21385 2.91113,-1.21387 0.65168,2e-5 1.51106,0.21486 2.57813,0.64453 1.30337,0.51564 1.95506,1.08498 1.95507,1.70801 -1e-5,0.29364 -0.10743,0.55503 -0.32226,0.78418 -0.21486,0.22918 -0.47267,0.34376 -0.77344,0.34375 -0.15756,1e-5 -0.37957,-0.0895 -0.66601,-0.26855 -1.09572,-0.66601 -2.01955,-0.99901 -2.77149,-0.99903 -0.53712,2e-5 -1.09929,0.27931 -1.68652,0.83789 -0.29363,0.27931 -0.71615,0.78778 -1.26758,1.52539 -1.6543,2.19142 -2.48145,4.56902 -2.48145,7.13282 0,1.34635 0.20768,2.28809 0.62305,2.82519 0.45117,0.58724 1.2819,0.88086 2.49219,0.88086 1.28189,0 2.3955,-0.40462 3.34082,-1.21387 0.99543,-0.85937 1.69009,-2.08756 2.08398,-3.68457 -1.98373,0.10027 -3.68457,0.48341 -5.10254,1.14942 -0.16472,0.0788 -0.32585,0.11817 -0.48339,0.11816 -0.31511,10e-6 -0.57651,-0.12174 -0.78418,-0.36523 -0.19337,-0.222 -0.29005,-0.47981 -0.29004,-0.77344 -1e-5,-0.39387 0.18977,-0.70898 0.56933,-0.94531 1.54687,-0.94531 4.21451,-1.41796 8.00293,-1.41797 0.30793,1e-5 0.56574,0.10385 0.77344,0.31152 0.20767,0.20769 0.31151,0.46909 0.31152,0.78418 -1e-5,0.4655 -0.19695,0.79851 -0.59082,0.99903 z"
         id="path3811"
         inkscape:connector-curvature="0" />
      <path
         d="m 158.8056,475.32034 c -2e-5,0.34376 -0.0573,0.91667 -0.17188,1.71875 -0.1146,0.72331 -0.49774,1.08496 -1.14941,1.08496 -0.3939,0 -0.86297,-0.25781 -1.40723,-0.77343 -2.91472,-2.75716 -6.25912,-6.73535 -10.0332,-11.93457 l -0.0537,2.43847 -0.0322,2.44922 c 0,0.59441 0.0125,1.48601 0.0376,2.67481 0.0251,1.1888 0.0376,2.08398 0.0376,2.68554 0,1.92644 -0.37239,2.88965 -1.11718,2.88965 -0.39389,0 -0.70541,-0.12532 -0.93457,-0.37598 -0.20769,-0.222 -0.31153,-0.48697 -0.31153,-0.79492 0,-0.30078 0.0233,-0.75553 0.0698,-1.36425 0.0465,-0.60873 0.0698,-1.06348 0.0698,-1.36426 0,-0.44401 0.0143,-1.10823 0.043,-1.99268 0.0286,-0.88443 0.043,-1.54866 0.043,-1.99267 0,-0.47265 -0.0107,-1.18701 -0.0322,-2.14307 -0.0215,-0.95605 -0.0322,-1.6704 -0.0322,-2.14307 -1e-5,-0.45116 -0.043,-1.12254 -0.12891,-2.01416 -0.0859,-0.89158 -0.12891,-1.56297 -0.12891,-2.01416 0,-0.32941 0.14144,-0.63019 0.42432,-0.90234 0.28288,-0.27212 0.60335,-0.40819 0.96143,-0.4082 0.37955,1e-5 0.84862,0.41538 1.40722,1.24609 1.7832,2.67124 3.38736,4.89129 4.8125,6.66016 1.69726,2.09831 3.55923,4.10352 5.58594,6.01562 0.0215,-0.30794 0.0215,-0.76269 0,-1.36426 l -0.0322,-1.35351 c -1e-5,-3.14387 -0.12176,-5.6468 -0.36523,-7.50879 -0.0287,-0.18619 -0.12534,-0.56216 -0.29004,-1.12793 -0.14324,-0.48697 -0.21486,-0.86652 -0.21484,-1.13867 -2e-5,-0.83072 0.37954,-1.24608 1.13867,-1.2461 1.24608,2e-5 1.86912,2.32391 1.86914,6.97168 -2e-5,0.79493 -0.0108,1.98194 -0.0322,3.56104 -0.0215,1.5791 -0.0322,2.76611 -0.0322,3.56103 z"
         id="path3813"
         inkscape:connector-curvature="0" />
      <path
         d="m 181.99798,462.56937 c -0.10744,0.30079 -0.16115,0.74122 -0.16113,1.32129 -2e-5,0.21485 0.007,0.53354 0.0215,0.95605 0.0143,0.42254 0.0215,0.74122 0.0215,0.95605 -1e-5,0.71616 -0.0627,1.78322 -0.18798,3.20118 -0.12534,1.41797 -0.18801,2.48503 -0.18799,3.20117 -2e-5,0.54427 0.0394,1.36068 0.11816,2.44922 0.0788,1.08854 0.11815,1.90853 0.11817,2.45996 -2e-5,0.29362 -0.0985,0.54069 -0.29541,0.74121 -0.19696,0.20052 -0.44224,0.30078 -0.73584,0.30078 -0.28648,0 -0.52997,-0.10026 -0.73047,-0.30078 -0.20054,-0.20052 -0.3008,-0.44759 -0.30078,-0.74121 -2e-5,-0.55143 -0.0394,-1.37142 -0.11817,-2.45996 -0.0788,-1.08854 -0.11818,-1.90495 -0.11816,-2.44922 -2e-5,-0.52278 0.0179,-1.05273 0.0537,-1.58985 -1.22462,0.0215 -2.73927,0.20411 -4.54395,0.54786 l -4.51172,0.88086 c 0,0.64453 -0.0644,1.55941 -0.19335,2.74462 -0.12891,1.18523 -0.19337,2.10368 -0.19336,2.75538 -10e-6,0.29362 -0.0985,0.54248 -0.29541,0.74658 -0.19695,0.2041 -0.44223,0.30615 -0.73584,0.30615 -0.29363,0 -0.53891,-0.10205 -0.73584,-0.30615 -0.19695,-0.2041 -0.29542,-0.45296 -0.29541,-0.74658 -10e-6,-0.75912 0.0627,-1.89242 0.18798,-3.39991 0.12533,-1.50748 0.18799,-2.64078 0.18799,-3.3999 0,-0.39387 -0.0143,-0.98827 -0.043,-1.7832 -0.0286,-0.79491 -0.043,-1.3929 -0.043,-1.79395 0,-0.56574 0.0358,-1.41616 0.10743,-2.55127 0.0716,-1.13507 0.10742,-1.9855 0.10742,-2.55127 0,-0.30076 0.0985,-0.55141 0.29541,-0.75195 0.19694,-0.2005 0.44222,-0.30076 0.73584,-0.30078 0.29361,2e-5 0.53889,0.10028 0.73584,0.30078 0.19693,0.20054 0.2954,0.45119 0.29541,0.75195 -1e-5,0.57294 -0.0376,1.43052 -0.11279,2.57276 -0.0752,1.14226 -0.1128,1.99985 -0.1128,2.57275 l 0.0645,2.71777 4.60839,-0.87011 c 1.84049,-0.34374 3.39094,-0.52278 4.65137,-0.53711 0.0788,-1.02408 0.11815,-2.56737 0.11817,-4.62988 -2e-5,-0.54426 0.0895,-1.09569 0.26855,-1.6543 0.23631,-0.76626 0.56932,-1.1494 0.99902,-1.14942 0.27212,2e-5 0.51561,0.0985 0.73047,0.29541 0.21483,0.19696 0.32225,0.44582 0.32227,0.74659 -2e-5,0.10743 -0.0322,0.25424 -0.0967,0.44043 z"
         id="path3815"
         inkscape:connector-curvature="0" />
      <path
         d="m 195.22161,463.24612 c -0.10027,2e-5 -0.21127,-0.0179 -0.33301,-0.0537 -1.21029,-0.34373 -2.37761,-0.51561 -3.50195,-0.51562 -0.58725,10e-6 -1.2282,0.0537 -1.92285,0.16113 -0.69467,0.10744 -1.44304,0.27215 -2.24512,0.49414 0.0644,0.46551 0.0967,0.83791 0.0967,1.11719 0,0.99545 -0.0609,2.36329 -0.18262,4.10351 l 4.70508,-0.45117 c 1.38215,-0.14322 2.23079,-0.21483 2.5459,-0.21484 0.31509,1e-5 0.58007,0.10027 0.79492,0.30078 0.21483,0.20053 0.32226,0.46909 0.32227,0.80566 -1e-5,0.65171 -0.32944,1.01694 -0.98828,1.09571 l -2.55664,0.22558 -4.96289,0.45118 c -0.0286,0.50847 -0.0519,0.99007 -0.0698,1.44482 -0.0179,0.45476 -0.0269,0.87907 -0.0268,1.27295 -1e-5,1.58268 0.11458,2.51367 0.34375,2.79297 0.17187,0.20052 0.73404,0.30078 1.68652,0.30078 0.444,0 1.11181,-0.0125 2.00342,-0.0376 0.89159,-0.0251 1.56298,-0.0376 2.01416,-0.0376 0.14322,0 0.35448,-0.0233 0.63379,-0.0698 0.27928,-0.0466 0.48696,-0.0698 0.62304,-0.0698 0.75911,0 1.13866,0.37239 1.13868,1.11718 -2e-5,0.60156 -0.30438,0.96322 -0.91309,1.08496 -0.67319,0.13607 -2.13054,0.2041 -4.37207,0.20411 -2.22006,-1e-5 -3.64519,-0.29363 -4.27539,-0.88086 -0.6875,-0.63737 -1.03125,-2.10547 -1.03125,-4.4043 0,-0.45833 0.0107,-0.95963 0.0322,-1.50391 0.0215,-0.54426 0.0501,-1.1315 0.0859,-1.76172 -0.0788,-0.1647 -0.11816,-0.34016 -0.11816,-0.52636 0,-0.24348 0.068,-0.46191 0.2041,-0.65528 0.14323,-2.06965 0.21484,-3.59862 0.21484,-4.58691 0,-0.26496 -0.0358,-0.65347 -0.10742,-1.16553 -0.0716,-0.51203 -0.10742,-0.90054 -0.10742,-1.16553 0,-0.85219 0.35807,-1.2783 1.07422,-1.27832 0.30078,2e-5 0.55859,0.10386 0.77344,0.31153 0.85937,-0.22915 1.6704,-0.40103 2.4331,-0.51563 0.76269,-0.11456 1.48063,-0.17186 2.15381,-0.17187 1.74022,10e-6 3.12955,0.2077 4.16797,0.62304 0.4798,0.19338 0.71971,0.53713 0.71973,1.03125 -2e-5,0.28648 -0.0931,0.54071 -0.2793,0.7627 -0.2077,0.2435 -0.46551,0.36525 -0.77344,0.36523 z"
         id="path3817"
         inkscape:connector-curvature="0" />
      <path
         d="m 209.08978,477.82327 c -0.27215,0 -0.52638,-0.11458 -0.7627,-0.34375 -2.37045,-2.34179 -5.00587,-3.91731 -7.90625,-4.72656 l 0.0859,2.10547 0.0537,2.11621 c -1e-5,0.3151 -0.10206,0.57829 -0.30615,0.78955 -0.20411,0.21126 -0.46013,0.31689 -0.76807,0.3169 -0.30795,-1e-5 -0.56397,-0.10564 -0.76807,-0.3169 -0.2041,-0.21126 -0.30615,-0.47445 -0.30615,-0.78955 0,-0.56575 -0.0269,-1.40901 -0.0806,-2.52979 -0.0537,-1.12076 -0.0806,-1.96402 -0.0806,-2.52978 0,-0.65885 0.0716,-1.63997 0.21484,-2.94336 0.14323,-1.30338 0.21484,-2.28091 0.21485,-2.93262 -10e-6,-0.36522 -0.034,-0.90591 -0.10206,-1.62207 -0.068,-0.71613 -0.10205,-1.25682 -0.10205,-1.62207 0,-0.40819 0.11459,-0.76626 0.34375,-1.07422 0.27214,-0.37954 0.64811,-0.55141 1.12793,-0.51562 l 2.58887,0.2041 c 0.98111,0.12176 1.80826,0.36167 2.48145,0.71973 2.90038,1.53972 4.35057,3.41961 4.35058,5.63965 -1e-5,1.08855 -0.49415,2.05176 -1.48242,2.88964 -0.79493,0.67319 -1.78679,1.18523 -2.97559,1.53614 2.22721,1.19596 3.89224,2.45638 4.99512,3.78125 0.18619,0.22916 0.27929,0.47265 0.2793,0.73047 -1e-5,0.30078 -0.10923,0.56217 -0.32764,0.78417 -0.21844,0.22201 -0.47446,0.33301 -0.76806,0.33301 z m -6.84278,-14.20117 -1.58984,-0.12891 0.10742,1.29981 c 0.0501,0.52996 0.0752,0.96323 0.0752,1.2998 -1e-5,0.57293 -0.0466,1.2855 -0.13965,2.1377 l -0.22559,2.13769 c 0.10026,10e-6 0.25602,0.004 0.46729,0.0107 0.21125,0.007 0.3706,0.0107 0.47802,0.0107 1.82617,10e-6 3.19401,-0.24348 4.10352,-0.73047 0.40103,-0.222 0.77343,-0.51204 1.11719,-0.87012 0.37954,-0.40103 0.56932,-0.7412 0.56933,-1.0205 -1e-5,-0.99544 -0.56576,-1.92284 -1.69726,-2.78223 -1.03842,-0.78775 -2.12696,-1.2425 -3.26563,-1.36426 z"
         id="path3819"
         inkscape:connector-curvature="0" />
      <path
         d="m 222.80755,463.24612 c -0.10027,2e-5 -0.21128,-0.0179 -0.33301,-0.0537 -1.2103,-0.34373 -2.37761,-0.51561 -3.50195,-0.51562 -0.58725,10e-6 -1.2282,0.0537 -1.92285,0.16113 -0.69467,0.10744 -1.44304,0.27215 -2.24512,0.49414 0.0644,0.46551 0.0967,0.83791 0.0967,1.11719 -1e-5,0.99545 -0.0609,2.36329 -0.18262,4.10351 l 4.70508,-0.45117 c 1.38215,-0.14322 2.23078,-0.21483 2.5459,-0.21484 0.31509,1e-5 0.58006,0.10027 0.79492,0.30078 0.21483,0.20053 0.32225,0.46909 0.32227,0.80566 -2e-5,0.65171 -0.32944,1.01694 -0.98829,1.09571 l -2.55664,0.22558 -4.96289,0.45118 c -0.0286,0.50847 -0.0519,0.99007 -0.0698,1.44482 -0.0179,0.45476 -0.0269,0.87907 -0.0269,1.27295 0,1.58268 0.11458,2.51367 0.34375,2.79297 0.17187,0.20052 0.73405,0.30078 1.68653,0.30078 0.444,0 1.11181,-0.0125 2.00341,-0.0376 0.8916,-0.0251 1.56298,-0.0376 2.01416,-0.0376 0.14322,0 0.35449,-0.0233 0.63379,-0.0698 0.27929,-0.0466 0.48697,-0.0698 0.62305,-0.0698 0.7591,0 1.13866,0.37239 1.13867,1.11718 -1e-5,0.60156 -0.30437,0.96322 -0.91308,1.08496 -0.67319,0.13607 -2.13055,0.2041 -4.37207,0.20411 -2.22006,-1e-5 -3.64519,-0.29363 -4.27539,-0.88086 -0.68751,-0.63737 -1.03126,-2.10547 -1.03125,-4.4043 -1e-5,-0.45833 0.0107,-0.95963 0.0322,-1.50391 0.0215,-0.54426 0.0501,-1.1315 0.0859,-1.76172 -0.0788,-0.1647 -0.11817,-0.34016 -0.11816,-0.52636 -10e-6,-0.24348 0.068,-0.46191 0.2041,-0.65528 0.14322,-2.06965 0.21484,-3.59862 0.21484,-4.58691 0,-0.26496 -0.0358,-0.65347 -0.10742,-1.16553 -0.0716,-0.51203 -0.10742,-0.90054 -0.10742,-1.16553 0,-0.85219 0.35807,-1.2783 1.07422,-1.27832 0.30077,2e-5 0.55859,0.10386 0.77343,0.31153 0.85937,-0.22915 1.67041,-0.40103 2.43311,-0.51563 0.76269,-0.11456 1.48062,-0.17186 2.15381,-0.17187 1.74022,10e-6 3.12954,0.2077 4.16797,0.62304 0.4798,0.19338 0.71971,0.53713 0.71972,1.03125 -1e-5,0.28648 -0.0931,0.54071 -0.27929,0.7627 -0.2077,0.2435 -0.46551,0.36525 -0.77344,0.36523 z"
         id="path3821"
         inkscape:connector-curvature="0" />
    </g>
  </g>
</svg>
